# xmcd
#
# Track frame offsets: 
#        150
#        18710
#        36729
#        54893
#        70486
#        92819
#        104270
#        118300
#        135882
#        154053
#        172358
#        188741
#        202364
#        218987
#        227133
#        239948
#
# Disc length: 3567 seconds
#
# Revision: 0
# Processed by: cddbd v1.5.1PL2 Copyright (c) Steve Scherf et al.
# Submitted via: ExactAudioCopy v0.95b2
#
DISCID=fe0ded10
DTITLE=Andrew Lloyd Webber - The Love Songs Of ... CD2
DYEAR=2005
DGENRE=Musical
TTITLE0=JESUS CHRIST SUPERSTAR - I Don'T Know How To Love Him
TTITLE1=CATS - Memory
TTITLE2=PHANTOM OF THE OPERA - All I Ask Of You
TTITLE3=ASPECTS OF LOVE - Love Changes Everything
TTITLE4=SUNSET BOULEVARD - As If We Never Said Goodbaye
TTITLE5=EVITA - I'd Be Surprisingly Good For You
TTITLE6=SUNSET BOULEVARD - Sunset Boulevard
TTITLE7=STARLIGHT EXPRESS - Only He
TTITLE8=PHANTOM OF THE OPERA - Angel Of Music
TTITLE9=JOSEPH AND THE AMAZING TECHNICOLOUR DREAMCOAT - Close Every Do
TTITLE9=or
TTITLE10=SUNSET BOULEVARD - With One Look
TTITLE11=EVITA - You Must Love Me
TTITLE12=TELL ME ON A SUNDAY - Take That Look Off Your Face
TTITLE13=SUNSET BOULEVARD - At The House On Sunset
TTITLE14=PHANTOM OF THE OPERA - Masquerade
TTITLE15=SUNSET BOULEVARD - Too Much In Love To Care
EXTD=
EXTT0=
EXTT1=
EXTT2=
EXTT3=
EXTT4=
EXTT5=
EXTT6=
EXTT7=
EXTT8=
EXTT9=
EXTT10=
EXTT11=
EXTT12=
EXTT13=
EXTT14=
EXTT15=
PLAYORDER=
